<svg xmlns="http://www.w3.org/2000/svg" width="24" height="24" viewBox="0 0 512 512" id="7Days"><g fill="#2c7be5" class="color000000 svgShape"><path d="M425.37,507H86.62a54.81,54.81,0,0,1-54.75-54.76v-149a6,6,0,0,1,12,0v149A42.8,42.8,0,0,0,86.62,495H425.37a42.81,42.81,0,0,0,42.76-42.76V201H43.87v55.48a6,6,0,0,1-12,0V195a6,6,0,0,1,6-6H474.13a6,6,0,0,1,6,6V452.24A54.82,54.82,0,0,1,425.37,507Z" fill="#2c7be5" class="color000000 svgShape"></path><path d="M37.87 290.37a6 6 0 01-6-6v-9a6 6 0 0112 0v9A6 6 0 0137.87 290.37zM474.13 201H37.87a6 6 0 01-6-6V121.12A58.31 58.31 0 0190.11 62.87h34.08a6 6 0 016 6V85.39a8.51 8.51 0 008.5 8.5h50.6a8.51 8.51 0 008.5-8.5V68.87a6 6 0 016-6H308.2a6 6 0 016 6V85.39a8.51 8.51 0 008.5 8.5h50.61a8.5 8.5 0 008.49-8.5V68.87a6 6 0 016-6h34.08a58.31 58.31 0 0158.25 58.25V195A6 6 0 01474.13 201zM43.87 189H468.13V121.12a46.31 46.31 0 00-46.25-46.25H393.8V85.39a20.51 20.51 0 01-20.49 20.5H322.7a20.52 20.52 0 01-20.5-20.5V74.87H209.79V85.39a20.52 20.52 0 01-20.5 20.5h-50.6a20.52 20.52 0 01-20.5-20.5V74.87H90.11a46.3 46.3 0 00-46.24 46.25z" fill="#2c7be5" class="color000000 svgShape"></path><path d="M189.29 105.89h-50.6a20.52 20.52 0 01-20.5-20.5V30.5A25.53 25.53 0 01143.69 5h40.6a25.53 25.53 0 0125.5 25.5V85.39A20.52 20.52 0 01189.29 105.89zM143.69 17a13.51 13.51 0 00-13.5 13.5V85.39a8.51 8.51 0 008.5 8.5h50.6a8.51 8.51 0 008.5-8.5V30.5A13.51 13.51 0 00184.29 17zM373.31 105.89H322.7a20.53 20.53 0 01-20.5-20.5V30.5A25.53 25.53 0 01327.7 5h40.61a25.53 25.53 0 0125.5 25.5V85.39A20.53 20.53 0 01373.31 105.89zM327.7 17a13.51 13.51 0 00-13.5 13.5V85.39a8.51 8.51 0 008.5 8.5h50.61a8.51 8.51 0 008.5-8.5V30.5A13.51 13.51 0 00368.31 17zM272.28 459a6 6 0 01-5.64-3.95l-10.36-28.48H224.39l-12 28.74a6 6 0 01-11.18-4.37L233.91 361a6 6 0 0111.28 0l32.73 89.91a6 6 0 01-3.59 7.7A6.15 6.15 0 01272.28 459zm-45.09-44.43h24.72l-12.36-33.95zM149.46 459h-2.83a12.3 12.3 0 01-12.28-12.28V369.35a12.29 12.29 0 0112.28-12.27h2.83a51 51 0 010 101.92zm-2.83-89.92a.28.28 0 00-.28.27v77.37a.29.29 0 00.28.28h2.83a39 39 0 000-77.92zM349.15 459c-.6 0-1.21 0-1.82-.06a28.43 28.43 0 01-23.15-14.64 6 6 0 0110.49-5.83 16.52 16.52 0 1017.12-24.3 8.33 8.33 0 01-1.58 0 12.26 12.26 0 01-1.64-.26h0a28.52 28.52 0 1124.07-48 6 6 0 01-8.7 8.28A16.52 16.52 0 10350 402l.18 0h0c.39 0 1 .05 2 .11a1.84 1.84 0 01.33 0A28.52 28.52 0 01349.15 459zM291.33 459a6 6 0 01-6-6V402.26a6 6 0 0112 0V453A6 6 0 01291.33 459z" fill="#2c7be5" class="color000000 svgShape"></path><path d="M291.33,408.26a6,6,0,0,1-5.15-2.91l-23.52-39.18A6,6,0,1,1,273,360l23.52,39.18a6,6,0,0,1-5.14,9.09Z" fill="#2c7be5" class="color000000 svgShape"></path><path d="M291.32 408.26a6 6 0 01-5.14-9.09L309.71 360A6 6 0 11320 366.17l-23.53 39.18A6 6 0 01291.32 408.26zM256 340.46a6 6 0 01-5.62-8.11l31.82-84.89H239.55a6 6 0 010-12h51.31a6 6 0 015.61 8.11l-34.85 93A6 6 0 01256 340.46z" fill="#2c7be5" class="color000000 svgShape"></path></g></svg>