<svg width="39" height="36" viewBox="0 0 39 36" fill="none" xmlns="http://www.w3.org/2000/svg">
<path d="M28.0583 30.3751H6.60825C5.14575 30.3751 3.927 29.2501 3.927 27.9001V9.73135C3.927 8.38135 4.902 7.25635 6.18169 7.25635H7.52231V8.8876H6.18169C5.99888 8.8876 5.75513 9.2251 5.75513 9.73135V27.9001C5.75513 28.3501 6.18169 28.7438 6.66919 28.7438H28.1192C28.6067 28.7438 29.0333 28.3501 29.0333 27.9001V9.73135C29.0333 9.2251 28.7286 8.8876 28.6067 8.8876H27.2661V7.25635H28.6067C29.8254 7.25635 30.8614 8.38135 30.8614 9.73135V27.9001C30.7395 29.2501 29.5208 30.3751 28.0583 30.3751Z" fill="#586870"/>
<path d="M10.2035 10.5751C9.71597 10.5751 9.2894 10.1813 9.2894 9.73135V6.4126C9.2894 5.9626 9.71597 5.56885 10.2035 5.56885C10.691 5.56885 11.1175 5.9626 11.1175 6.4126V9.73135C11.0566 10.1813 10.691 10.5751 10.2035 10.5751ZM24.4628 10.5751C23.9753 10.5751 23.5488 10.1813 23.5488 9.73135V6.4126C23.5488 5.9626 23.9753 5.56885 24.4628 5.56885C24.9503 5.56885 25.3769 5.9626 25.3769 6.4126V9.73135C25.3769 10.1813 24.9503 10.5751 24.4628 10.5751ZM12.8847 7.25635H21.7816V8.94385H12.8847V7.25635ZM5.69409 12.2063H28.9722V13.8938H5.69409V12.2063ZM25.3769 15.5251H27.1441V17.1563H25.3769V15.5251ZM21.7816 15.5251H23.6097V17.1563H21.7816V15.5251ZM18.2472 15.5251H20.0144V17.1563H18.2472V15.5251ZM14.6519 15.5251H16.4191V17.1563H14.6519V15.5251ZM11.0566 15.5251H12.8847V17.1563H11.0566V15.5251ZM25.3769 18.8438H27.1441V20.4751H25.3769V18.8438ZM21.7816 18.8438H23.6097V20.4751H21.7816V18.8438ZM18.2472 18.8438H20.0144V20.4751H18.2472V18.8438ZM14.6519 18.8438H16.4191V20.4751H14.6519V18.8438ZM11.0566 18.8438H12.8847V20.4751H11.0566V18.8438ZM7.52222 18.8438H9.2894V20.4751H7.52222V18.8438ZM25.3769 22.1063H27.1441V23.7938H25.3769V22.1063ZM21.7816 22.1063H23.6097V23.7938H21.7816V22.1063ZM18.2472 22.1063H20.0144V23.7938H18.2472V22.1063ZM14.6519 22.1063H16.4191V23.7938H14.6519V22.1063ZM11.0566 22.1063H12.8847V23.7938H11.0566V22.1063ZM7.52222 22.1063H9.2894V23.7938H7.52222V22.1063ZM21.7816 25.4251H23.6097V27.0563H21.7816V25.4251ZM18.2472 25.4251H20.0144V27.0563H18.2472V25.4251ZM14.6519 25.4251H16.4191V27.0563H14.6519V25.4251ZM11.0566 25.4251H12.8847V27.0563H11.0566V25.4251ZM7.52222 25.4251H9.2894V27.0563H7.52222V25.4251Z" fill="#586870"/>
</svg>
