<svg xmlns="http://www.w3.org/2000/svg" width="24" height="24" enable-background="new 0 0 512 512" viewBox="0 0 512 512" id="Calendar"><path d="M329.55 279.4l-54.12-12.76-20.17-51.81c-1.93-4.97-8.73-5.56-11.49-1.01l-28.86 47.53-55.51 3.17c-5.32.3-7.99 6.58-4.51 10.62l36.28 42.13 0 0-23.77 52.93c-2.28 5.08 2.16 9.49 7.52 7.46l55.83-21.09 42.23 29.67c4.05 2.84 10.6-.6 11.08-5.84l5.04-54.57 0 0 43.05-35.19C336.27 287.26 334.74 280.62 329.55 279.4zM380 330.27c-1.91-.16-3.62 1.26-3.79 3.18-.17 1.93 1.26 3.62 3.18 3.79l12.92 1.13c.1.01.21.01.31.01 1.79 0 3.32-1.37 3.48-3.19.17-1.93-1.26-3.62-3.18-3.79L380 330.27z" fill="#2c7be5" class="color000000 svgShape"></path><path d="M441.7 108.85l-34.41-3.01 1.43-16.31c.44-5.07-1.11-10.01-4.38-13.91-3.27-3.9-7.86-6.29-12.93-6.73-10.47-.91-19.73 6.85-20.64 17.32l-1.43 16.31-82.84-7.25 1.43-16.31c.44-5.07-1.11-10.01-4.38-13.91-3.27-3.9-7.86-6.29-12.93-6.73-5.07-.44-10.01 1.11-13.91 4.38-3.9 3.27-6.29 7.87-6.73 12.93l-1.43 16.31-82.84-7.25 1.43-16.31c.44-5.07-1.11-10.01-4.39-13.91-3.27-3.9-7.86-6.29-12.93-6.73-5.08-.45-10.01 1.11-13.91 4.38-3.9 3.27-6.29 7.86-6.73 12.93l-1.43 16.31-34.41-3.01c-8.56-.74-16.14 5.61-16.89 14.17l-18.36 209.9c-.33 3.83-1.52 7.62-3.43 10.96l-40.07 69.96c-2.66 4.64-2.76 10.24-.29 14.97 2.48 4.74 7.13 7.84 12.46 8.31l22.08 1.89c0 0-.1.86-.14 1.3l-3.18 36.34c-.36 4.15.91 8.19 3.59 11.38s6.44 5.15 10.59 5.51l348.38 30.48c.46.04.92.06 1.37.06 7.99 0 14.81-6.13 15.52-14.23l7.92-90.49c.17-1.93-1.26-3.62-3.18-3.79-1.91-.16-3.62 1.26-3.79 3.18l-7.92 90.49c-.41 4.72-4.59 8.22-9.31 7.81L60.28 456.09c-2.29-.2-4.36-1.28-5.83-3.04-1.48-1.76-2.18-3.99-1.98-6.27l3.18-36.34c.04-.45.12-1.26.12-1.26l316.89 27.72c.45.04.9.06 1.35.06 5.54 0 10.75-2.98 13.54-7.84l45.63-79.66c2.41-4.21 3.91-8.99 4.33-13.83l18.36-209.9C456.63 117.18 450.27 109.6 441.7 108.85zM448.91 125.13l-4.18 47.73-46.46-4.06c-1.92-.17-3.62 1.26-3.79 3.18-.17 1.93 1.26 3.62 3.18 3.79l46.46 4.06-13.55 154.85-21.49-1.88c-1.91-.17-3.62 1.26-3.79 3.18-.17 1.93 1.26 3.62 3.18 3.79l20.63 1.81c-.54 1.52-1.2 3-2 4.39l-45.63 79.66c-1.66 2.9-4.88 4.58-8.21 4.29L27.34 399.67c-2.98-.26-5.48-1.93-6.87-4.58-1.38-2.65-1.33-5.66.16-8.25l40.07-69.96c1.3-2.28 2.33-4.72 3.07-7.25l28.42 2.49c.1.01.21.01.31.01 1.79 0 3.32-1.37 3.48-3.19.17-1.93-1.26-3.62-3.18-3.79l-27.75-2.43 13.55-154.85 293.4 25.67c.1.01.21.01.31.01 1.79 0 3.32-1.37 3.48-3.19.17-1.93-1.26-3.62-3.18-3.79l-293.4-25.67 4.18-47.73c.41-4.72 4.6-8.24 9.31-7.81l34.41 3.01-1.43 16.31c-.44 5.07 1.11 10.01 4.39 13.91 3.27 3.9 7.87 6.29 12.93 6.73.56.05 1.12.07 1.67.07 9.76 0 18.1-7.49 18.97-17.39l.53-6.11c.17-1.93-1.26-3.62-3.18-3.79-1.93-.17-3.62 1.26-3.79 3.18l-.53 6.11c-.58 6.62-6.44 11.53-13.06 10.96-3.21-.28-6.11-1.79-8.18-4.26s-3.05-5.59-2.77-8.8l1.73-19.79c0 0 0 0 0 0s0 0 0 0l1.73-19.8c.28-3.21 1.79-6.11 4.26-8.18s5.59-3.06 8.8-2.77c3.21.28 6.11 1.79 8.18 4.26s3.05 5.59 2.77 8.8l-1.43 16.31-12.01-1.05c-1.93-.16-3.62 1.26-3.79 3.18s1.26 3.62 3.18 3.79l101.82 8.91-1.43 16.31c-.92 10.47 6.85 19.73 17.32 20.64.56.05 1.12.07 1.67.07 9.76 0 18.1-7.49 18.97-17.39l.53-6.11c.17-1.93-1.26-3.62-3.18-3.79-1.91-.16-3.62 1.26-3.79 3.18l-.53 6.11c-.58 6.62-6.44 11.54-13.06 10.96-6.62-.58-11.54-6.44-10.96-13.06l3.46-39.6c.28-3.21 1.79-6.11 4.26-8.18 2.47-2.07 5.59-3.06 8.8-2.77 3.21.28 6.11 1.79 8.18 4.26s3.05 5.59 2.77 8.8l-1.43 16.31-12.01-1.05c-1.91-.16-3.62 1.26-3.79 3.18-.17 1.93 1.26 3.62 3.18 3.79l101.82 8.91-1.43 16.31c-.44 5.07 1.11 10.01 4.38 13.91 3.27 3.9 7.86 6.29 12.93 6.73.56.05 1.12.07 1.67.07 9.76 0 18.1-7.49 18.97-17.39l.53-6.11c.17-1.93-1.26-3.62-3.18-3.79-1.92-.16-3.62 1.26-3.79 3.18l-.53 6.11c-.58 6.62-6.45 11.54-13.06 10.96-3.21-.28-6.11-1.79-8.18-4.26s-3.05-5.59-2.77-8.8l3.46-39.6c.58-6.62 6.44-11.53 13.06-10.96 3.21.28 6.11 1.79 8.18 4.26s3.05 5.59 2.77 8.8l-1.43 16.31-12.01-1.05c-1.91-.16-3.62 1.26-3.79 3.18-.17 1.93 1.26 3.62 3.18 3.79l53.39 4.67C445.81 116.24 449.32 120.41 448.91 125.13zM14.67 91.9l24.12 9.8c.43.18.88.26 1.32.26 1.38 0 2.69-.82 3.24-2.18.73-1.79-.13-3.83-1.92-4.56l-24.12-9.8c-1.79-.73-3.83.13-4.56 1.92S12.88 91.18 14.67 91.9zM97.03 47.93c.43 1.55 1.84 2.57 3.37 2.57.31 0 .62-.04.93-.13 1.86-.51 2.96-2.44 2.44-4.3l-6.92-25.1c-.51-1.86-2.44-2.96-4.3-2.44-1.86.51-2.96 2.44-2.44 4.3L97.03 47.93zM499.33 349.36c-.61-1.83-2.6-2.82-4.43-2.21l-24.69 8.28c-1.83.62-2.82 2.6-2.21 4.43.49 1.46 1.86 2.39 3.32 2.39.37 0 .74-.06 1.11-.18l24.69-8.28C498.96 353.18 499.95 351.2 499.33 349.36zM482.7 448.72l-21.61-14.53c-1.61-1.08-3.78-.65-4.86.95-1.08 1.6-.65 3.78.95 4.86l21.61 14.53c.6.4 1.28.6 1.95.6 1.13 0 2.23-.54 2.91-1.55C484.73 451.97 484.3 449.8 482.7 448.72z" fill="#2c7be5" class="color000000 svgShape"></path></svg>