<svg width="33" height="33" viewBox="0 0 33 33" fill="none" xmlns="http://www.w3.org/2000/svg">
<path d="M16.5 33C19.7634 33 22.9535 32.0323 25.6669 30.2192C28.3803 28.4062 30.4952 25.8293 31.744 22.8143C32.9928 19.7993 33.3196 16.4817 32.6829 13.281C32.0463 10.0803 30.4748 7.14031 28.1673 4.83274C25.8597 2.52518 22.9197 0.953706 19.719 0.31705C16.5183 -0.319606 13.2007 0.0071491 10.1857 1.25599C7.17074 2.50484 4.59379 4.61969 2.78075 7.3331C0.967708 10.0465 0 13.2366 0 16.5C0 20.8761 1.73839 25.0729 4.83274 28.1673C7.92709 31.2616 12.1239 33 16.5 33ZM18.6268 7.09501L20.9731 9.40501L13.8781 16.5726L20.955 23.5769L18.645 25.9232L9.2169 16.604L18.6268 7.09501Z" fill="#C2F8CB"/>
</svg>
