<svg xmlns="http://www.w3.org/2000/svg" width="118" height="136" viewBox="0 0 118 136" fill="none">
    <path d="M0.878433 47.7737C1.88531 44.3056 4.51437 41.5087 7.87062 40.334C7.75875 40.1662 7.64687 39.8865 7.59093 39.7187H31.8119C34.6087 39.7187 34.6087 34.1249 31.8119 34.1249H11.5625C9.21312 34.1249 7.19937 32.7824 6.36031 30.7128C7.25531 26.909 9.66062 23.7765 13.5203 22.9374H37.4112C40.2081 22.9374 40.2081 17.3437 37.4112 17.3437H15.0362C14.9187 17.3437 12.7372 17.3996 11.8981 14.4909V14.4349C14.0797 10.1837 20.2887 7.05119 25.2112 6.21213C29.4066 5.48494 30.2456 4.81369 33.6578 4.14244C41.9925 2.58178 51.2222 1.18335 62.7453 0.735849C63.3606 0.674317 64.0319 0.674316 64.7031 0.674316H64.8653C84.3316 0.735848 95.4687 11.8618 95.4687 11.8618V53.8149C95.4687 53.8149 92.6159 62.1496 81.4844 78.9868C67.8412 99.5774 67.5 84.6365 54.5784 119.989C53.7953 122.176 52.3409 124.128 49.7119 123.966C47.5247 123.793 45.7403 122.394 45.2928 120.554C45.9025 110.765 47.7485 102.206 50.8866 95.7177C52.8444 91.5783 54.7462 87.6683 55.8091 83.473C56.2566 81.5711 56.1447 80.3349 55.8091 79.9433C55.7531 79.8874 55.6412 79.7811 55.5294 79.7252C55.5853 79.6077 55.5853 79.4399 55.6412 79.3336C57.2075 73.0127 55.1378 67.8049 45.4606 67.8049H5.96874C3.67531 67.8049 1.7175 66.4065 0.878433 64.4487C1.43781 62.4349 2.61249 60.6393 4.17874 59.2968C3.61937 58.7934 3.12153 58.2899 2.72437 57.6746C3.61937 57.0034 4.73812 56.4999 5.96874 56.4999H31.8119C34.6087 56.4999 34.6087 50.9062 31.8119 50.9062H5.96874C3.73124 50.9062 1.77343 49.6756 0.878433 47.7737Z" fill="#FF8164"/>
    <path d="M106.656 64.8906C106.656 66.4345 107.909 67.6875 109.453 67.6875C110.997 67.6875 112.25 66.4345 112.25 64.8906V20.1406C112.25 18.5968 110.997 17.3438 109.453 17.3438C107.909 17.3438 106.656 18.5968 106.656 20.1406V64.8906Z" fill="#DC4DFF"/>
    <path d="M4.17875 59.2969C1.82937 57.2272 0.375 54.2625 0.375 50.9622C0.375 46.1572 3.5075 41.8444 7.87063 40.3397C6.64 38.5441 5.96875 36.4184 5.96875 34.125C5.96875 28.6991 8.59781 24.0563 13.6881 22.9934C11.5625 22.9934 10.8353 19.0219 11.2828 16.3928C12.1778 11.1347 19.5616 7.16313 25.2112 6.21219C29.4066 5.485 30.2456 4.81375 33.6578 4.1425C43.7266 2.24062 55.1378 0.5625 70.2969 0.5625C91.9447 0.5625 104.469 12.8128 105.034 13.3722L106.656 14.9944V60.1919L106.377 61.0869C106.209 61.4728 102.853 70.1432 91.7209 87.5397C76.7856 110.927 78.5253 92.7475 65.5981 126.976C63.8081 131.848 60.34 135.031 55.6413 135.031L54.97 134.969C49.3203 134.639 44.9572 130.108 45.125 124.677C45.4047 113.153 47.3066 103.09 50.8866 95.701C52.8444 91.5616 54.7463 87.6516 55.8091 83.4563C56.2566 81.5544 56.1447 80.3182 55.8091 79.9266C55.4734 79.5462 54.1309 78.875 51.0544 78.875H31.1406C29.5744 78.875 28.3438 77.6388 28.3438 76.0781C28.3438 74.5175 29.5744 73.2812 31.1406 73.2812H51.0544C60.7316 73.2812 62.8013 78.4834 61.235 84.81C58.0466 97.5581 51.1103 109.478 50.7188 124.861C50.6069 127.211 52.6766 129.275 55.3056 129.443C57.9347 129.61 59.3891 127.658 60.1722 125.471C73.0938 90.1184 73.435 105.054 87.0781 84.4688C98.2097 67.6316 101.062 59.2969 101.062 59.2969V17.3438C101.062 17.3438 89.875 6.15625 70.2969 6.15625C50.7188 6.15625 42.8875 8.95312 26.1063 11.75C23.0856 12.2534 17.1562 14.2113 17.1562 17.3438C17.1562 22.8816 20.5125 22.9375 20.6244 22.9375H31.8119C34.6087 22.9375 34.6087 28.5312 31.8119 28.5312H17.1562C14.0797 28.5312 11.5625 30.9925 11.5625 34.125C11.5625 37.2016 14.0797 39.7188 17.1562 39.7188H26.2181C29.015 39.7188 29.015 45.3125 26.2181 45.3125H11.5625C8.48594 45.3125 5.96875 47.8856 5.96875 50.9622C5.96875 54.0387 8.48594 56.5 11.5625 56.5H26.2181C29.015 56.5 29.015 62.0938 26.2181 62.0938H11.5625C8.48594 62.0938 5.96875 64.5494 5.96875 67.6875C5.96875 70.7641 8.48594 73.2812 11.5625 73.2812H19.9531C21.5194 73.2812 22.75 74.5175 22.75 76.0781C22.75 77.6388 21.5194 78.875 19.9531 78.875H11.5625C5.40937 78.875 0.375 73.8406 0.375 67.6875C0.375 64.3312 1.82937 61.3106 4.17875 59.2969Z" fill="#2D2220"/>
    <path d="M28.3438 76.0781C28.3438 77.622 29.5968 78.875 31.1406 78.875C32.6845 78.875 33.9375 77.622 33.9375 76.0781C33.9375 74.5343 32.6845 73.2812 31.1406 73.2812C29.5968 73.2812 28.3438 74.5343 28.3438 76.0781Z" fill="#2D2220"/>
    <path d="M112.25 14.5469C112.25 13.003 113.503 11.75 115.047 11.75C116.591 11.75 117.844 13.003 117.844 14.5469V36.9219C117.844 38.4657 116.591 39.7188 115.047 39.7188C113.503 39.7188 112.25 38.4657 112.25 36.9219V14.5469Z" fill="#2D2220"/>
    <path d="M112.25 59.2969C112.25 60.8407 113.503 62.0938 115.047 62.0938C116.591 62.0938 117.844 60.8407 117.844 59.2969V48.1094C117.844 46.5655 116.591 45.3125 115.047 45.3125C113.503 45.3125 112.25 46.5655 112.25 48.1094V59.2969Z" fill="#2D2220"/>
</svg>