<svg width="121" height="121" viewBox="0 0 121 121" fill="none" xmlns="http://www.w3.org/2000/svg">
<path d="M60.6302 118.59C64.7185 118.59 68.0327 115.276 68.0327 111.187C68.0327 107.099 64.7185 103.785 60.6302 103.785C56.5419 103.785 53.2277 107.099 53.2277 111.187C53.2277 115.276 56.5419 118.59 60.6302 118.59Z" fill="#FFEC60"/>
<path d="M60.5 94.9534C56.4021 94.9534 53.0805 91.6313 53.0805 87.5339V64.6006C53.0805 60.5027 56.4025 57.1811 60.5 57.1811C71.5091 57.1811 80.4655 48.2247 80.4655 37.2156C80.4655 26.2065 71.5091 17.2499 60.5 17.2499C49.4909 17.2499 40.5345 26.2063 40.5345 37.2154C40.5345 41.3133 37.2125 44.6349 33.115 44.6349C29.0175 44.6349 25.6955 41.3128 25.6955 37.2154C25.6952 18.0239 41.3085 2.4104 60.5 2.4104C79.6915 2.4104 95.3048 18.0237 95.3048 37.2151C95.3048 53.8614 83.5588 67.8154 67.9195 71.2242V87.5339C67.9195 91.6318 64.5979 94.9534 60.5 94.9534Z" fill="#FFEC60"/>
<path d="M60.63 121C55.2193 121 50.8172 116.598 50.8172 111.187C50.8172 105.776 55.2193 101.374 60.63 101.374C66.0407 101.374 70.4428 105.776 70.4428 111.187C70.4428 116.598 66.0407 121 60.63 121ZM60.63 106.195C57.8775 106.195 55.6378 108.434 55.6378 111.187C55.6378 113.939 57.8772 116.179 60.63 116.179C63.3827 116.179 65.6222 113.94 65.6222 111.187C65.6219 108.435 63.3825 106.195 60.63 106.195Z" fill="#4D4D4D"/>
<path d="M60.5 97.3639C55.0798 97.3639 50.6702 92.9542 50.6702 87.534V64.6003C50.6702 59.1801 55.0798 54.7705 60.5 54.7705C70.18 54.7705 78.0554 46.8953 78.0554 37.2151C78.0554 27.5348 70.18 19.6599 60.5 19.6599C50.82 19.6599 42.9446 27.5351 42.9446 37.2153C42.9446 42.6355 38.535 47.0451 33.1148 47.0451C27.6946 47.0451 23.2849 42.6355 23.2849 37.2153C23.2847 16.6947 39.9794 0 60.5 0C81.0206 0 97.7153 16.6947 97.7153 37.2153C97.7153 45.7482 94.7425 54.0915 89.3446 60.7073C84.4393 66.7195 77.7441 71.0743 70.3301 73.1119V87.5338C70.3298 92.9542 65.9202 97.3639 60.5 97.3639ZM60.5 14.839C72.8382 14.839 82.876 24.8771 82.876 37.2151C82.876 49.553 72.8382 59.5911 60.5 59.5911C57.738 59.5911 55.4908 61.8383 55.4908 64.6003V87.5338C55.4908 90.2958 57.738 92.543 60.5 92.543C63.262 92.543 65.5092 90.2958 65.5092 87.5338V71.2239C65.5092 70.0904 66.2988 69.1101 67.4064 68.8686C82.1753 65.6498 92.8944 52.3375 92.8944 37.2148C92.8944 19.3527 78.3624 4.82062 60.5 4.82062C42.6376 4.82062 28.1056 19.3527 28.1056 37.2153C28.1056 39.9773 30.3528 42.2245 33.1148 42.2245C35.8767 42.2245 38.124 39.9773 38.124 37.2153C38.124 24.8771 48.1618 14.839 60.5 14.839Z" fill="#4D4D4D"/>
<path d="M60.5 89.6654C59.1688 89.6654 58.0897 88.5863 58.0897 87.255V73.2751C58.0897 71.9438 59.1688 70.8647 60.5 70.8647C61.8312 70.8647 62.9103 71.9438 62.9103 73.2751V87.255C62.9103 88.5863 61.8312 89.6654 60.5 89.6654Z" fill="#4D4D4D"/>
<path d="M60.5 69.1774C59.1688 69.1774 58.0897 68.0983 58.0897 66.7671V64.5978C58.0897 63.2666 59.1688 62.1875 60.5 62.1875C61.8312 62.1875 62.9103 63.2666 62.9103 64.5978V66.7671C62.9103 68.0983 61.8312 69.1774 60.5 69.1774Z" fill="#4D4D4D"/>
</svg>
