<svg xmlns="http://www.w3.org/2000/svg" width="179" height="179" viewBox="0 0 179 179" fill="none">
    <path d="M144.934 109.414C143.927 112.882 141.298 115.679 137.942 116.853C138.054 117.021 138.166 117.301 138.222 117.469H114.001C111.204 117.469 111.204 123.063 114.001 123.063H134.25C136.599 123.063 138.613 124.405 139.452 126.475C138.557 130.278 136.152 133.405 132.298 134.25H108.407C105.61 134.25 105.61 139.844 108.407 139.844H130.782C130.899 139.844 133.075 139.788 133.92 142.697V142.753C131.733 147.009 125.529 150.136 120.601 150.981C116.406 151.708 115.572 152.379 112.155 153.051C103.82 154.611 94.5903 156.01 83.0672 156.457C82.4519 156.519 81.7806 156.519 81.1094 156.519H80.9416C61.4753 156.457 50.3438 145.331 50.3438 145.331V103.378C50.3438 103.378 53.1966 95.0434 64.3281 78.2062C77.9769 57.6212 78.3125 72.5565 91.2341 37.204C92.0172 35.0225 93.4716 33.0647 96.1006 33.2325C98.2878 33.4003 100.072 34.7987 100.52 36.6447C99.91 46.4337 98.064 54.9922 94.9259 61.4809C92.9681 65.6203 91.0663 69.5359 90.0034 73.7312C89.5559 75.6331 89.6678 76.8637 90.0034 77.2553C90.0594 77.3112 90.1713 77.4231 90.2831 77.479C90.2272 77.5909 90.2272 77.7587 90.1713 77.8706C88.605 84.1915 90.6747 89.3937 100.352 89.3937H139.844C142.137 89.3937 144.095 90.7922 144.934 92.75C144.369 94.7637 143.194 96.5537 141.634 97.8962C142.193 98.3997 142.691 98.9031 143.088 99.5184C142.193 100.184 141.074 100.688 139.844 100.688H114.001C111.204 100.688 111.204 106.281 114.001 106.281H139.844C142.081 106.281 144.039 107.512 144.934 109.414Z" fill="#5FFFBA"/>
    <path d="M39.1562 103.484C39.1562 101.941 37.9032 100.688 36.3594 100.688C34.8155 100.688 33.5625 101.941 33.5625 103.484V148.234C33.5625 149.778 34.8155 151.031 36.3594 151.031C37.9032 151.031 39.1562 149.778 39.1562 148.234V103.484Z" fill="#5FFFBA"/>
    <path d="M141.634 97.8906C143.983 99.9603 145.438 102.925 145.438 106.225C145.438 111.03 142.305 115.343 137.942 116.848C139.173 118.643 139.844 120.769 139.844 123.063C139.844 128.488 137.215 133.131 132.124 134.194C134.25 134.194 134.977 138.166 134.53 140.795C133.635 146.053 126.257 150.024 120.601 150.975C116.406 151.703 115.572 152.374 112.155 153.045C102.086 154.947 90.6747 156.625 75.5156 156.625C53.8678 156.625 41.3378 144.375 40.7784 143.815L39.1562 142.193V96.9956L39.4359 96.1006C39.6038 95.7147 42.96 87.0388 54.0916 69.6478C69.0269 46.2659 67.2928 64.4456 80.2144 30.2119C82.0044 25.3453 85.4725 22.1569 90.1713 22.1569L90.8425 22.2128C96.4922 22.5484 100.855 27.0794 100.688 32.5053C100.408 44.0284 98.5059 54.0972 94.9259 61.4809C92.9681 65.6203 91.0662 69.5359 90.0034 73.7312C89.5559 75.6331 89.6678 76.8637 90.0034 77.2553C90.3391 77.6469 91.6816 78.3125 94.7581 78.3125H114.672C116.238 78.3125 117.469 79.5431 117.469 81.1094C117.469 82.6756 116.238 83.9063 114.672 83.9063H94.7581C85.0809 83.9063 83.0112 78.7041 84.5775 72.3831C87.7659 59.6294 94.7022 47.7147 95.0938 32.3319C95.2056 29.9825 93.1359 27.9128 90.5069 27.745C87.8778 27.5772 86.4234 29.535 85.6403 31.7166C72.7188 67.0691 72.3831 52.1338 58.7344 72.7188C47.6028 89.556 44.75 97.8906 44.75 97.8906V139.844C44.75 139.844 55.9375 151.031 75.5156 151.031C95.0938 151.031 102.925 148.234 119.706 145.438C122.727 144.934 128.656 142.976 128.656 139.844C128.656 134.306 125.3 134.25 125.188 134.25H114.001C111.204 134.25 111.204 128.656 114.001 128.656H128.656C131.733 128.656 134.25 126.195 134.25 123.063C134.25 119.986 131.733 117.469 128.656 117.469H119.594C116.797 117.469 116.797 111.875 119.594 111.875H134.25C137.327 111.875 139.844 109.302 139.844 106.225C139.844 103.149 137.327 100.688 134.25 100.688H119.594C116.797 100.688 116.797 95.0938 119.594 95.0938H134.25C137.327 95.0938 139.844 92.6325 139.844 89.5C139.844 86.4235 137.327 83.9063 134.25 83.9063H125.859C124.293 83.9063 123.062 82.6756 123.062 81.1094C123.062 79.5431 124.293 78.3125 125.859 78.3125H134.25C140.403 78.3125 145.438 83.3469 145.438 89.5C145.438 92.8563 143.983 95.8769 141.634 97.8906Z" fill="#2D2220"/>
    <path d="M117.469 81.1094C117.469 79.5655 116.216 78.3125 114.672 78.3125C113.128 78.3125 111.875 79.5655 111.875 81.1094C111.875 82.6532 113.128 83.9062 114.672 83.9062C116.216 83.9062 117.469 82.6532 117.469 81.1094Z" fill="#2D2220"/>
    <path d="M33.5625 120.266C33.5625 121.809 32.3095 123.062 30.7656 123.062C29.2218 123.062 27.9688 121.809 27.9688 120.266V97.8906C27.9688 96.3468 29.2218 95.0938 30.7656 95.0938C32.3095 95.0938 33.5625 96.3468 33.5625 97.8906V120.266Z" fill="#2D2220"/>
    <path d="M33.5625 131.453C33.5625 129.909 32.3095 128.656 30.7656 128.656C29.2218 128.656 27.9688 129.909 27.9688 131.453V142.641C27.9688 144.184 29.2218 145.438 30.7656 145.438C32.3095 145.438 33.5625 144.184 33.5625 142.641V131.453Z" fill="#2D2220"/>
</svg>