<svg xmlns="http://www.w3.org/2000/svg" viewBox="0 0 32 32" width="24" height="24" id="UpdateTime"><path d="M16 1.5a14.54 14.54 0 0 0-3.23.37A1 1 0 0 0 12 3.08a1 1 0 0 0 1.2.74A12.2 12.2 0 0 1 16 3.5a12 12 0 1 1-9 4.09v2.91a1 1 0 0 0 2 0v-5a1 1 0 0 0-1-1H3a1 1 0 0 0 0 2h2.3a14 14 0 1 0 10.7-5Z" fill="#2c7be5" class="color000000 svgShape"></path><path d="M16 5.5a1 1 0 0 0-1 1v9a1 1 0 0 0 .29.71l5 5a1 1 0 0 0 1.42 0 1 1 0 0 0 0-1.42L17 15.09V6.5a1 1 0 0 0-1-1Z" fill="#2c7be5" class="color000000 svgShape"></path></svg>